<mxfile host="app.diagrams.net" modified="2024-03-30T15:38:46.592Z" agent="Mozilla/5.0 (Macintosh; Intel Mac OS X 10_15_7) AppleWebKit/537.36 (KHTML, like Gecko) Chrome/122.0.0.0 Safari/537.36" version="24.2.1" etag="SLA2rQaNBg0Z5S4vNgll" type="github">
  <diagram name="第 1 页" id="j4jjQkZ4XxjNv5YcHBIk">
    <mxGraphModel>
      <root>
        <mxCell id="0" />
        <mxCell id="1" parent="0" />
      </root>
    </mxGraphModel>
  </diagram>
</mxfile>
